
<svg height="511pt" viewBox="-75 1 511 511.999" width="511pt" xmlns="http://www.w3.org/2000/svg"><path d="m329.503906 70.257812h-2.363281c.574219 2.628907.886719 5.355469.886719 8.15625v40.238282c0 24.714844-20.105469 44.820312-44.820313 44.820312h-204.566406c-24.714844 0-44.824219-20.109375-44.824219-44.824218v-40.238282c0-2.800781.3125-5.523437.886719-8.152344h-2.363281c-17.585938 0-31.839844 14.253907-31.839844 31.839844v378.0625c0 17.582032 14.253906 31.839844 31.839844 31.839844h297.164062c17.585938 0 31.839844-14.257812 31.839844-31.839844v-378.0625c0-17.585937-14.253906-31.839844-31.839844-31.839844zm-62.183594 349.359376c-23.078124 23.078124-53.761718 35.785156-86.398437 35.785156s-63.320313-12.707032-86.398437-35.785156c-23.078126-23.078126-35.785157-53.761719-35.785157-86.398438 0-32.632812 12.707031-63.316406 35.785157-86.394531 23.078124-23.078125 53.761718-35.789063 86.398437-35.789063s63.320313 12.710938 86.398437 35.789063c23.074219 23.078125 35.785157 53.761719 35.785157 86.394531 0 32.636719-12.710938 63.320312-35.785157 86.398438zm0 0"/><path d="m180.921875 241.160156c-50.84375 0-92.058594 41.21875-92.058594 92.058594s41.21875 92.058594 92.058594 92.058594 92.054687-41.21875 92.054687-92.058594-41.214843-92.058594-92.054687-92.058594zm41.570313 82.425782-49.335938 49.332031c-2.824219 2.824219-6.65625 4.414062-10.652344 4.414062-3.992187 0-7.824218-1.589843-10.652344-4.414062l-24.664062-24.667969c-5.882812-5.882812-5.882812-15.417969 0-21.300781 5.882812-5.882813 15.417969-5.882813 21.300781 0l14.015625 14.015625 38.6875-38.683594c5.878906-5.882812 15.417969-5.882812 21.300782 0 5.882812 5.882812 5.882812 15.421875 0 21.304688zm0 0"/><path d="m78.640625 133.347656h204.5625c8.117187 0 14.699219-6.578125 14.699219-14.695312v-40.238282c0-4.464843-3.617188-8.082031-8.078125-8.082031l-45.542969-.707031v-6.234375c0-2.777344-.199219-5.511719-.542969-8.195313-.679687-5.25-1.996093-10.296874-3.878906-15.0625-9.273437-23.503906-32.167969-40.132812-58.929687-40.132812-.121094 0-.238282 0-.359376 0-26.644531.148438-49.359374 16.746094-58.585937 40.132812-1.882813 4.765626-3.199219 9.8125-3.878906 15.0625-.347657 2.6875-.542969 5.417969-.542969 8.195313v6.941406h-45.542969c-4.460937 0-8.078125 3.617188-8.078125 8.078125v40.238282c0 8.117187 6.582032 14.699218 14.699219 14.699218zm102.28125-85.609375c8.8125 0 15.957031 7.144531 15.957031 15.957031 0 8.816407-7.144531 15.960938-15.957031 15.960938s-15.957031-7.144531-15.957031-15.960938c0-8.8125 7.144531-15.957031 15.957031-15.957031zm0 0"/></svg>